<svg xmlns="http://www.w3.org/2000/svg" viewBox="0 0 1545.99 105.78"><defs><style>.cls-1{fill:#050606;}</style></defs><title>pme-terrain-theme-sunset</title><g id="Layer_2" data-name="Layer 2"><g id="Layer_1-2" data-name="Layer 1"><path class="cls-1" d="M295.43,92.74c-1.91,0-7.15,2-9.57,1.79a50.17,50.17,0,0,1-8-1.92c-1.54-.51-22.58,1.22-22.58,1.22a2.39,2.39,0,0,1-2.13.52,205.59,205.59,0,0,0-26.72-1,78.41,78.41,0,0,0-16.15,1.85c-4.48,1-8.87,2.44-13.36,3.45-2.1.48-4.14,1.54-6.43.74a2.51,2.51,0,0,0-2.29.7,1.71,1.71,0,0,1-2.13.2c-2.83-2.3-6.35-1.17-9.48-1.95a10.48,10.48,0,0,0-3.85-.54,50.65,50.65,0,0,1-10.44-.29c-2.16-.18-4.3-1.13-6.46-.65a4,4,0,0,1-4.34-1.64c-1.73-2.3-4.13-2.54-6.47-2a14.42,14.42,0,0,1-6.24-.08,5,5,0,0,0-3.43.19,2.74,2.74,0,0,1-2.54-.08c-2.45-1-4.81-2.32-7.66-2-1.86.19-3.77.86-5.66,0a1.49,1.49,0,0,0-1.39.25,2.93,2.93,0,0,1-2.77.28c-3.31-1.17-6.85-.9-10.12-.6-3.48.32-7,.24-10.44.76a6.46,6.46,0,0,1-3.27,0c-3.33-1.27-6.65-.62-10-.1a27.16,27.16,0,0,1-9,0,35.41,35.41,0,0,0-11.65-.47,11.5,11.5,0,0,1-7-.86,9.32,9.32,0,0,0-3.9-1.14,2.55,2.55,0,0,1-2.7-2.1c-.26-1.15-.8-2.1-2.1-2.24a2.92,2.92,0,0,0-2.72,1.56c-1.45,2.06-3.66,2.31-5.83,2.14-2.42-.18-5-.26-6.92-2.11a1.72,1.72,0,0,0-1.16-.39c-2.6,0-5-1.38-7.64-1.09-2.44.27-4.88-.68-7.39-.12a3.36,3.36,0,0,1-3.52-1.22A2.73,2.73,0,0,0,8,82.58a27.14,27.14,0,0,1-5-1.12c-1.15-.26-2.56-.4-3,1.3,0,6.92,0,23,0,23H1546V0c-.12-.12-11.46,8.13-34.72,8.77-9.74.27-21.55,5.37-34.07,5.74-5.93.17-14.43,2.65-22.93,6.74-4.46,2.15-10.68,6.31-14.17,6.41-7.66.23-6.66,5.68-8.95,1.3-2.1-4-6,.34-13.82.58-6,.18-7.51-3.59-14.4-1.15a74.86,74.86,0,0,1-21,4.31c-4.91.16-9.25,3-16.7,4.61s-17.67,1.6-25,3.17c-7,1.47-17.81,5.32-22.46,5.47-5.19.16-16.31,1.23-24.77,4-9.94,3.29-17,.49-25.12,2.41a40,40,0,0,1-7.34,1.14A31.47,31.47,0,0,1,1248,51.79c-9.3-3.56-9.53,3-24,3.48-24.9.83-38.74-6.26-55.51-5.64-21,.77-49.09,3.82-49.68,4-7.77,2.56-12.88-1.1-20.78.63-1.68.37-9.71,4.58-11.34,4.72-.62.06-9,6.88-27.07,6.93-5.88,0-10.37-1.9-17.63-1.89-8.48,0-17.36,7.86-27.39,7.87-8.8,0-18.83,3.6-28.56,3.61-7.15,0-25.92-2.36-33.47-2.35-10.89,0-10.75,2.39-22.23,2.4-9.46,0-20.06-6-29.74-6-10.26,0-19.6,6.06-29.93,6.07-9.19,0-18,4.44-27.1,4.44-9.45,0-19.18-4.43-28.38-4.43-7.2,0-14.3,1.86-21.27,1.86-7.36,0-14.58-1.87-21.6-1.87-8.41,0-25.5,1.58-33.3,1.57-10.08,0-17.6-4.46-26.38-4.47-7.73,0-6.63-.69-13.12-.7-8.3,0-14.73,6.31-20.61,6.29a35.74,35.74,0,0,1-18.52-5.59c-3.73-.38-9,2.41-12.74,2.68a18.63,18.63,0,0,1-8.78-1.28,4.47,4.47,0,0,0-4,0,7.58,7.58,0,0,1-4.19.65c-5.09-.4-10.15.41-15.21.69-2.35.13-4.56.61-6.75-.85a2.6,2.6,0,0,0-4,1.51c-.7,1.94-2,2.56-3.86,2.79-3.32.41-6.7.31-9.9,1.74-3.67,1.65-7.77,1.59-11.69,2.2-2.48.38-5.09,0-7.52.94a2.34,2.34,0,0,1-1.63,0c-4-1.31-7.48.87-10.88,2.06a11,11,0,0,1-6.87.39,8.66,8.66,0,0,0-4.26-.12c-1.28.28-2.45,1-3.76,1-4.37,0-8.53,1.39-12.74,2.23A57.92,57.92,0,0,1,519.05,91a2.84,2.84,0,0,0-2.21.93,4.15,4.15,0,0,1-5.83.42c-1.4-1-3.57-1.52-4.4-.58-2.18,2.44-4.79,2.15-7.49,2.38a18.1,18.1,0,0,1-3.67.27,3.68,3.68,0,0,0-2.23.22c-2.88,1.57-6.11,1.42-9.2,2s-5.89-1-8.92-.46a13.45,13.45,0,0,1-5.31-.24A10.21,10.21,0,0,0,463,97.17a3.67,3.67,0,0,1-2.7.35c-2.81-.6-5.57-1.57-8.52-1.33-1.86.16-3.66.69-5.51.8-4.09.25-8.19.17-12.27.48a33.15,33.15,0,0,1-7-.3,11,11,0,0,0-4.9.23s-21.25,6.2-24,6.51a19,19,0,0,0-3.35.94,6,6,0,0,1-4.77-.63c-.77-.44-1.43-1-2.47-.52-.75.31-1.82-.45-2-1.62,0,0-10.07-1.93-22.33-3.72a74.67,74.67,0,0,0-21.63-.12,6.13,6.13,0,0,0-2.94,1.36,7.23,7.23,0,0,1-7.25,1.74,34.18,34.18,0,0,0-3.67-.57,7.36,7.36,0,0,1-2-.5c-4.77-2.39-10-2.77-15.13-3.44-1.7-.22-3.53.1-5.29-.16-2.43-.35-4.68-1-6.34-3A8.22,8.22,0,0,0,295.43,92.74Z"/></g></g></svg>