<svg xmlns="http://www.w3.org/2000/svg" viewBox="0 0 225.42 315.2"><defs><style>.cls-1{fill:#050606;}</style></defs><title>pme-couple-theme-sunset</title><g id="Layer_2" data-name="Layer 2"><g id="Layer_1-2" data-name="Layer 1"><path class="cls-1" d="M48.07,201.94c-.26,1.64-.15,3.27-.28,4.9-.28,3.41.32,6.84-.27,10.23a5.68,5.68,0,0,1-.57,2.17h0c-.46,3.13-.89,6.26-1.39,9.38a18.76,18.76,0,0,0-.26,3.5c.17,5.74-.74,11.38-1.45,17-.66,5.32-1.52,10.63-1.49,16a5.69,5.69,0,0,1-.83,2.92c-.18.32-.39.59-.8.52a.76.76,0,0,1-.66-.9c.42-2.11.06-4.27.39-6.37a20.21,20.21,0,0,0,.22-3.29,145.22,145.22,0,0,1,1.1-14.6c.63-6.51,1.45-13,.74-19.56a1.73,1.73,0,0,1,.65-1.82h0a24.19,24.19,0,0,1,1-9.32,28.47,28.47,0,0,0,1-4.47,5.86,5.86,0,0,0-.08-1.2c-.11-3.41-.74-6.8-.35-10.23h0a6.51,6.51,0,0,1-.28-1.2c-.43-8.45-1.07-16.89.25-25.32.31-2,.26-4.1.46-6.15a31.19,31.19,0,0,0-.2-8.13,2.92,2.92,0,0,1,.47-2.36c.43-.51.65-1.51,1.71-1.05.81.36,1,.7,1,1.8a77.21,77.21,0,0,0,.43,11.87,151.21,151.21,0,0,1,1.12,18.9,48,48,0,0,1-1.11,11.65h0A19.74,19.74,0,0,1,48.07,201.94ZM162.34,304.35c-1.79,3.32,1.53,8.43,8.94,10.47s9.7-4.6,12.51-7.15.76-6.38.25-8.68,0-3.83.26-5.62a78.22,78.22,0,0,0-.3-8.65c.59-3,1.14-6.09,1.81-9.09,1.28-5.78,1.68-11.7,2.94-17.47.13-5.39-.63-10.75-.73-16.14a71.74,71.74,0,0,1-2.05-8.39c-.52-4-2.06-7.9-.5-11.95.27-2.66-.47-5.42.7-8a2.57,2.57,0,0,0,0-.68c-.41-2.05.12-4,.51-6a5.82,5.82,0,0,0,.13-1,18.85,18.85,0,0,1,.3-2.59c.58-2.85-.36-5.83.73-8.65a2.89,2.89,0,0,1,.33-.74,2.16,2.16,0,0,1,.89-.52,3.23,3.23,0,0,0,.51-.14c.43-.12.87-.22,1.3-.36,2.41-.82,3.86-2.37,3.58-5.27,1.1.74,2.09,1.68,3,.76a31.35,31.35,0,0,1,3.46-2.48,3,3,0,0,0,1.18-2.9,18.5,18.5,0,0,0-1.21-4.32,4.19,4.19,0,0,1-.2-1.41c0-2.88.09-5.81-1.07-8.51a3.8,3.8,0,0,1,1.18-4.91,6.09,6.09,0,0,0,1.95-6.9c-.33-1-.51-2-.78-3-.92-3.45-2.48-6.71-3.21-10.22-1.17-5.69-2.67-11.24-6.29-16-.82-.78-.88-1.43-.09-2.42a23,23,0,0,0,3.94-8.7,2.23,2.23,0,0,0-.21-1.93c1.72-.49,1.33-2.07,1.51-3.35a7,7,0,0,0-.55-1,71.57,71.57,0,0,0,1.53-8.24c.13,0,.24,0,.38,0,1.56-1.11,1.74-3,2.54-4.55a2.54,2.54,0,0,1,1.21-1.16c.19,1.69-.22,3.61,1.8,4.6.14.07.23.34.25.53.32,2.94,1.45,5.71,1.8,8.64a2.71,2.71,0,0,1,.34,1.78c0,6.79,1.5,13.39,2.92,20,1.13,5.24,3,10.31,3.95,15.6a49.26,49.26,0,0,1,1.21,9.6,13.36,13.36,0,0,1-1.45,6.78,29.55,29.55,0,0,0-3.25,9.05,9.35,9.35,0,0,1-.18,3.25h0a3.41,3.41,0,0,0-.23,2.09h0a8.16,8.16,0,0,1-.11,2.26c-.07.57,0,1.14.59,1.38a1.37,1.37,0,0,0,1.5-.39,3.43,3.43,0,0,0,1-1.76c.24-1.07.41-2.16.63-3.23.07-.35-.05-.87.66-.84a10.24,10.24,0,0,1-1,7.34c-.54,1-1.16,1.86-1.7,2.82-.26.48-.45,1.07.09,1.5s.9.1,1.34-.12a40.21,40.21,0,0,1,5-2.49,18.17,18.17,0,0,0,5.85-3.33,2.92,2.92,0,0,0,1.08-1.87,20.27,20.27,0,0,1,.68-4.24c.11-1.68-.54-3.24-.76-4.87-.48-3.6-1.22-7.17-.83-10.84a4.39,4.39,0,0,0-.18-1.43,68.58,68.58,0,0,1-1.41-16.79,86.21,86.21,0,0,0-.65-12.33c-.23-2-.88-4-.59-6.11a6.57,6.57,0,0,1-.54-3,38.14,38.14,0,0,0-.82-6.5c-1.32-4.58-1.51-9.3-1.73-14,0-.58-.21-1.26.51-1.62,1.59-.8,1.67-.87,1.18-2.26a3.5,3.5,0,0,0,.49-.29c.74-1.49-.82-2.18-1.14-3.29a76,76,0,0,1-2.21-10.57c-.41-2.9-.54-5.84-1.12-8.72-.09-.08-.18-.13-.27-.2a2.61,2.61,0,0,0,0-2c-.55-2.4-1.52-4.67-2.19-7a9,9,0,0,0-4.86-5.95c-3.72-1.81-6.85-4.56-10.44-6.56-2.71-1.52-5.41-3-7-5.79a.52.52,0,0,0-.45-.23c-.21-2.72-.62-3.12-3.49-3.82a4.29,4.29,0,0,0-.6-.13c-1.19-.11-1.63-.87-1.74-1.94a25.86,25.86,0,0,1,.28-6,.91.91,0,0,1,1.12-.91c1.07.14,1.55-.6,2.12-1.33a16.2,16.2,0,0,0,2.38-5.67,2.62,2.62,0,0,0-.34-2.74,3.35,3.35,0,0,1-.87-2.83c0-1.58,0-3.16-.07-4.74a44.49,44.49,0,0,0-.2-5.76c-.15-.85.08-1.66-.57-2.53A17.71,17.71,0,0,0,182.72,2,14,14,0,0,0,174.85,0a17.29,17.29,0,0,0-11,5.24,2.16,2.16,0,0,0-.68,1c-.59,3.16-1.66,6.21-1.83,9.47-.13,2.5.55,4.93.41,7.4a28.74,28.74,0,0,0,2.75,14.41,1.19,1.19,0,0,1-.52,1.72,7.64,7.64,0,0,0-2.48,2.64l-.06,0c-2.21.88-4.49,1.51-6.77,2.17-.81.23-1.72.58-2,1.61a3.91,3.91,0,0,1-2,.51,47.79,47.79,0,0,0-9.88,2.87,2.73,2.73,0,0,0-1.72,1.35c-.93,1.84-2,3.61-2.77,5.53-2.79,6.81-5,13.82-7.54,20.73a7,7,0,0,1-.86,2.08c-.27,1.35-1.47,2.43-1.34,3.88l-.11.08c-1.4,2-1.4,2.56.42,4.15a2.73,2.73,0,0,1,.87,3.47c-1.32,3.24-2.42,6.57-4.45,9.48a77.64,77.64,0,0,0-6,11.49,11.05,11.05,0,0,1-1.18,3.5c-3.13,6.56-5.24,13.54-8.38,20.13-2.67,5.6-5.4,10.77-11,14-1.14.64-1.9.59-2.68-.36a6,6,0,0,1-1.18-2.15A96.39,96.39,0,0,1,90,131.19c-.7-6.2-1.72-12.36-2.54-18.55-.43-3.24-1.63-6.41-1.07-9.77a31.86,31.86,0,0,1,.2-8c.35-2.45.14-5.12,1.8-7.29a4.76,4.76,0,0,1,.94-.85c1.52-1.19,3.5-1.06,5.2-1.76s2.18-1.19,1.73-3.09a25.61,25.61,0,0,1-1-3.78c-1.15-3.08-2-6.24-3.2-9.32a36.58,36.58,0,0,0-4.88-9.61,4.85,4.85,0,0,1-.5-.34c.78-3.72-.17-7.36-.74-11-.06-.41-.35-.82-.07-1.23a9.39,9.39,0,0,0,1.06,0c2.38.42,3.37,1.74,3.48,4.35a14.84,14.84,0,0,1-1,5,9,9,0,0,0,.17,5.28c.09.29.3.5.6.39a.66.66,0,0,0,.37-.44A5.61,5.61,0,0,0,90.66,60a19.64,19.64,0,0,1,.8-6.94A5.83,5.83,0,0,0,91.59,50c-.44-2-1.32-3.81-3.58-4.37-.25-1.18-1.33-1.42-2.2-1.87-.65-.33-1.44-.42-1.85-1.15-.51-.94-.24-1.37.78-1,1.83.65,3.21,2,4.82,3A4.13,4.13,0,0,1,91,46.23a1.83,1.83,0,0,1,.08.25,5.57,5.57,0,0,0,4,4.11c-.84-1.07-.92-2.44-1.52-3.6a3.16,3.16,0,0,0,.21-.33,1.45,1.45,0,0,0-.05-.62,3.92,3.92,0,0,0-.43-.84,8,8,0,0,0-1.88-3.06A2.17,2.17,0,0,1,91.12,41c.2-1.32-.34-2-1.7-2L86.2,37.72h0c-1.06-.56-2.68-.35-2.83-2.14,0-.15-.43-.29-.69-.38a1.45,1.45,0,0,1-1-1.38,2.39,2.39,0,0,0-2.06-2.44,1.33,1.33,0,0,1-.88-.82A6.14,6.14,0,0,0,77,28.85c-1.25-1.14-2.7-2-3.46-3.84A14.27,14.27,0,0,0,71,20.67c-1.48-1.56-3-3.07-4.55-4.59a26.59,26.59,0,0,0-3.61-3.41c-6.14-4.86-13.75-2-17.66,2.16-2.84,3-4.54,6.69-6.13,10.42-1.42,3.3-2.59,6.64-1.94,10.38a4.8,4.8,0,0,1-1.15,3.67,7,7,0,0,0-1.49,4.6c0,2.87,0,3-2.75,3.69a8.5,8.5,0,0,0-5.77,4.86,38.75,38.75,0,0,1-2.16,3.75c-1.88,2.86-3.65,5.79-5.58,8.61A3.39,3.39,0,0,0,17.6,66a7,7,0,0,1-.89,2.26c-.48,2.53-.22,3.19,2,4.29a2.25,2.25,0,0,1,1.52,2.58c-.73,5-1.13,10-2.71,14.79-2.22,6.65-4.35,13.32-6.16,20.09a27.08,27.08,0,0,1-.37,2.85c-.81,3-1.73,5.89-2.28,8.91a28.77,28.77,0,0,1-3.63,10.39,5.72,5.72,0,0,0-.46,2.08,3.2,3.2,0,0,1-.87,2.08,5.53,5.53,0,0,0-1,1.79,4.7,4.7,0,0,1-.68,1.69A18.36,18.36,0,0,0,.8,144.06c-1,5.43-1.92,10.81,3.22,15,2,1.65,4.8-.38,4.46-.26.49-.7.13-1.35-.09-2,0,0-1-1.49-1.89-1.8-.41-.13-.51-.59-.53-1-.07-1.91,1-3.39,1.93-4.88a.38.38,0,0,1,.54-.12.76.76,0,0,1,.29.48,8.3,8.3,0,0,1-.49,2.83c-.35,1.34-.6,2.69.26,4a1.7,1.7,0,0,0,.39.45c1.52.15,2-1,2.45-2.07A18.37,18.37,0,0,0,12.52,149c.25-2.72,1.49-5.42.78-8.14-1.39-5.36.32-10.14,2.35-14.91a6.48,6.48,0,0,0,.54-1.2,5.49,5.49,0,0,1,.94-2.19,40,40,0,0,1,1.75-4,93.16,93.16,0,0,0,4.56-10.7c1.77-6,2.74-12.33,4.13-18.45a1,1,0,0,1,0-.1A47.85,47.85,0,0,1,29.5,82a3,3,0,0,1,.21,2.26c-.31,1.69-.55,3.39-.85,5.08a.59.59,0,0,1,.07.48c-.62,2.74-1.16,5.51-1.73,8.27a3.47,3.47,0,0,1-.39,1.88,85.22,85.22,0,0,1-3.71,13.21c-.16.83-.3,1.68-.39,2.54-.15,1.39-.07,2.9-.91,4.16-1.36,2-1.73,4.42-2.33,6.72a15.77,15.77,0,0,0-.11,1.94,4.84,4.84,0,0,1-.13.64c-.66,1.09-.36,2.22-.25,3.39.25,2.5,1.18,5,.47,7.51-1.67,6-1.2,12-.48,18,.49,4,1.69,7.92,2.47,11.9a4.57,4.57,0,0,0,.44.92c.32,1.72.78,3.42,1.25,5.1.36,2.86,1.2,5.61,1.75,8.42.94,4.75,1.85,9.5,1.67,14.38a10.22,10.22,0,0,1,.47,4c-.07,1.5-.28,3-.33,4.48-.09,2.51.66,5-.17,7.52a53.88,53.88,0,0,1-.56,9.41c0,1,.47,1.88.36,2.85A60.54,60.54,0,0,0,27,241.88a129,129,0,0,1,1.76,13.42c.33,3.87,1,7.75.48,11.67a1.56,1.56,0,0,1-1.59,1.91,5.17,5.17,0,0,0-2.5.89c-1,.74-1.5,1.78-.72,2.86.92,1.27,1.84.57,2.79-.31-1.6,1.39-1.86,2.89-.66,4.57a.84.84,0,0,1,0,.61,15.63,15.63,0,0,1-4.28,8.28s-.66,7.46,1.83,9,36.19,1.34,39.83,0,2.08-9.19,2.08-9.19a36.49,36.49,0,0,0-3-2.88,16.12,16.12,0,0,1-2.9-3.48,6.77,6.77,0,0,0-2-2.07A14,14,0,0,1,55.34,274,7.8,7.8,0,0,1,54,268.37h0c-.14-2.35.54-4.6.87-6.88.35-2.43.82-4.84,1.26-7.26a3.23,3.23,0,0,1,.36-.72h0c1.83-8.17,3.82-16.32,5.36-24.56.06-.34,0-.8.25-1,1.59-1.32,1.4-3.17,1.55-4.92a1.82,1.82,0,0,1,.22-.57h0l.09-1.28a3.51,3.51,0,0,0,.34-2.38h0c0-.89.11-1.78.1-2.67a3.7,3.7,0,0,1,1-2.61c1.47-1.73,1.48-1.8.2-3.67a3.25,3.25,0,0,1-.32-2.37,4.64,4.64,0,0,1,1.11-2.81c-.3-3.68.87-7.15,1.59-10.67.54-2.61,1.18-5.19,1.54-7.83A5,5,0,0,1,70,184h0c.58-.64.25-1.43.38-2.15.59-4,1.16-8,1.78-12a95.92,95.92,0,0,1,1.48-9.56,56.28,56.28,0,0,0,1.43-12,13.62,13.62,0,0,1,1.08-3.73,21.6,21.6,0,0,0,1.24-8.08c-.06-1.65.28-3.29.08-4.94h0a75.91,75.91,0,0,1-2-8.17,10.69,10.69,0,0,1-.09-5.27c.09-.33.13-.68.57-.88.73.37.83,1.17,1,1.84q1.59,5,3.07,10A6.81,6.81,0,0,0,80.9,131a.55.55,0,0,0,.31.78.24.24,0,0,1,.15.24h0A51.72,51.72,0,0,1,84,139c.72,1.93,1.39,3.88,2.28,5.75a6.88,6.88,0,0,1,.61,1.53,60,60,0,0,0,3.89,10.83,10.21,10.21,0,0,0,2.22,3.2,28.09,28.09,0,0,1,3.47,4.25,9.18,9.18,0,0,0,4.19,3.16c.63.25,1.18,0,1.16-.71,0-1.18.61-1.47,1.61-1.67,2.15-.43,2.38-.65,1.66-2.78a4.62,4.62,0,0,1,1.62-5.76,14.28,14.28,0,0,0,3.33-4.43,4.09,4.09,0,0,0,.67-1.5c.17-2.59,1.47-4.73,2.84-6.77,3.24-4.78,6-9.92,9.84-14.26.79-.89,1.6-1.77,2.41-2.66a.56.56,0,0,1,0-.12l0,0-.08.08a60.22,60.22,0,0,0-2.93,11.42,24.6,24.6,0,0,1-1.59,5.33c-.63,1.52-1.23,3.05-1.88,4.56a3.62,3.62,0,0,0-.21,1.62,30.24,30.24,0,0,0,.12,3.3c.67,5.35-.87,10.29-2.61,15.23-.94,2.67-2,5.3-3.15,7.84-1.1,2.36-1.6,4.92-2.71,7.25h0a64.85,64.85,0,0,1-1.81,7c-.81,3.19-1.73,6.36-2.6,9.54a2.49,2.49,0,0,1-.21,1.81c-1.52,2.29-1.34,5.09-2.33,7.55s.1,4.59.88,6.79h0a5.79,5.79,0,0,0,1.18,3.22h0l.07.09h0a1.32,1.32,0,0,1,.68.73c2.42,5.4,4.6,10.9,6.8,16.38a106.1,106.1,0,0,0,5.31,11.39h0a59.94,59.94,0,0,1,7.36,12.66,17.84,17.84,0,0,1,1.35,3.4c1.07,1.63,1.29,3.58,2,5.36a25.17,25.17,0,0,1,.67,3.64c.19.87,0,1.46-.86,1.8a3.64,3.64,0,0,0-2.24,2.78c-.5,2.1-2.1,3.38-3.57,4.67a19.77,19.77,0,0,1-2.6,2,3.37,3.37,0,0,0-1.31,1.55,4.82,4.82,0,0,1-4.23,3.11,57,57,0,0,0-6.71,1.05,31.83,31.83,0,0,0-7.92,4.59c-3.45,2.87,1.72,6.12,6.51,6.22s23.17-1.82,28-1.82,8.81,2.68,14,1.53,3.44-6.68,3.44-6.68c-.43-2.93-1.94-5.6-2.14-8.54a17,17,0,0,0-.54-4.43,1.45,1.45,0,0,1,.5-1.49,2.14,2.14,0,0,0,.37-2.31,5.85,5.85,0,0,0-4.4-4.38c-.47-.12-1.13-.19-1.23-.64-.44-2.05-2.38-3.61-2-5.94h0c-1-2.55-2.09-5.05-2.89-7.66-1.19-3.86-2.09-7.81-3.26-11.68a34.13,34.13,0,0,1-.72-5.08,31.48,31.48,0,0,0-1.52-6.39,3.25,3.25,0,0,1-.28-1.4h0a116.53,116.53,0,0,0-6-12.11,3,3,0,0,1-.63-1.49h0a13.64,13.64,0,0,1-2.48-3.76c-.63-1.24-.39-1.62,1-1.66,1,0,2.07,0,3.1,0a3.93,3.93,0,0,0,3.91-3.27,28.59,28.59,0,0,1,4-9.64c1-1.59,1.83-3.22,2.81-4.79.71-1.15.9-1.18,1.87-.25a67,67,0,0,0,5.79,5,18.06,18.06,0,0,0,7.6,3.51c1.74.33,1.72.37,1.89,2.11a33.93,33.93,0,0,1,0,4.94,3.74,3.74,0,0,1-.42,1.56c-.68,1.35-.42,1.82,1.11,2a18.8,18.8,0,0,1,5,1.3h0a1.12,1.12,0,0,1,.74.92c.61,5.18,2.25,10.14,3.39,15.22h0a17.66,17.66,0,0,1,1.37,8.41c-.28,4.08-.87,8.15-1.31,12.22,0,.55,0,1.1,0,1.65a2.87,2.87,0,0,1,.34,1c-.12,2.49.51,4.92.51,7.4,0,1.57.3,3.14.45,4.71.4,4.1.78,8.19,1.18,12.29.1,1,.22,2.05.39,3.06a18.46,18.46,0,0,1-.52,6.91S164.13,301,162.34,304.35Z"/></g></g></svg>